<svg width="24" height="22" viewBox="0 0 24 22" fill="none" xmlns="http://www.w3.org/2000/svg">
<path fill-rule="evenodd" clip-rule="evenodd" d="M12.0433 0.19458C5.88743 0.19458 0.934937 5.14707 0.934937 11.303C0.934937 16.2092 4.1286 20.3748 8.52568 21.8559C9.0811 21.9485 9.26624 21.6245 9.26624 21.3005C9.26624 21.0228 9.26624 20.3285 9.26624 19.4028C6.16514 20.0971 5.51715 17.9217 5.51715 17.9217C5.00802 16.6257 4.26746 16.3017 4.26746 16.3017C3.24919 15.6075 4.36003 15.6075 4.36003 15.6075C5.47087 15.7 6.07257 16.7646 6.07257 16.7646C7.04456 18.4771 8.66453 17.968 9.31252 17.6903C9.40509 16.9497 9.6828 16.4869 10.0068 16.2092C7.55369 15.9315 4.96173 14.9595 4.96173 10.7013C4.96173 9.49786 5.3783 8.47959 6.11886 7.73903C6.02629 7.46132 5.60972 6.35048 6.21143 4.77679C6.21143 4.77679 7.13713 4.49908 9.26624 5.93391C10.1457 5.70249 11.1176 5.56363 12.0433 5.56363C12.969 5.56363 13.941 5.70249 14.8204 5.93391C16.9495 4.49908 17.8752 4.77679 17.8752 4.77679C18.4769 6.30419 18.1067 7.41503 17.9678 7.73903C18.6621 8.52587 19.1249 9.49786 19.1249 10.7013C19.1249 14.9595 16.533 15.8852 14.0336 16.1629C14.4502 16.4869 14.7741 17.1812 14.7741 18.1994C14.7741 19.6805 14.7741 20.884 14.7741 21.2542C14.7741 21.5319 14.9593 21.9022 15.561 21.8097C19.9581 20.3748 23.1517 16.2092 23.1517 11.303C23.1517 5.14707 18.1992 0.19458 12.0433 0.19458Z" fill="currentColor"/>
</svg>
