<svg width="24" height="24" viewBox="0 0 24 24" fill="none" xmlns="http://www.w3.org/2000/svg">
<path d="M12.001 2.28712C15.1016 2.28712 15.4688 2.29873 16.6937 2.35458C17.4302 2.36359 18.1596 2.49882 18.8504 2.7544C19.3513 2.94758 19.8062 3.24352 20.1859 3.62315C20.5655 4.00279 20.8614 4.45771 21.0546 4.95864C21.3102 5.64939 21.4454 6.37886 21.4544 7.11532C21.5097 8.3402 21.5219 8.70739 21.5219 11.808C21.5219 14.9087 21.5103 15.2759 21.4544 16.5008C21.4454 17.2372 21.3102 17.9667 21.0546 18.6574C20.8614 19.1584 20.5655 19.6133 20.1859 19.9929C19.8062 20.3726 19.3513 20.6685 18.8504 20.8617C18.1596 21.1173 17.4302 21.2525 16.6937 21.2615C15.4694 21.3168 15.1022 21.329 12.001 21.329C8.89977 21.329 8.53258 21.3174 7.30825 21.2615C6.57178 21.2525 5.84232 21.1173 5.15157 20.8617C4.65064 20.6685 4.19572 20.3726 3.81608 19.9929C3.43645 19.6133 3.14051 19.1584 2.94732 18.6574C2.69175 17.9667 2.55652 17.2372 2.54751 16.5008C2.49221 15.2759 2.48004 14.9087 2.48004 11.808C2.48004 8.70739 2.49166 8.3402 2.54751 7.11532C2.55652 6.37886 2.69175 5.64939 2.94732 4.95864C3.14051 4.45771 3.43645 4.00279 3.81608 3.62315C4.19572 3.24352 4.65064 2.94758 5.15157 2.7544C5.84232 2.49882 6.57178 2.36359 7.30825 2.35458C8.53313 2.29928 8.90032 2.28712 12.001 2.28712ZM12.001 0.19458C8.84889 0.19458 8.45184 0.207852 7.21313 0.264257C6.24929 0.283429 5.29567 0.465924 4.39286 0.803981C3.61838 1.09578 2.91691 1.55305 2.33737 2.14389C1.746 2.72364 1.28833 3.42551 0.996357 4.20048C0.6583 5.1033 0.475804 6.05691 0.456633 7.02076C0.401333 8.25836 0.388062 8.65541 0.388062 11.8075C0.388062 14.9596 0.401333 15.3566 0.457739 16.5953C0.47691 17.5592 0.659406 18.5128 0.997463 19.4156C1.28912 20.1905 1.7464 20.8923 2.33737 21.4722C2.91723 22.0632 3.61909 22.5204 4.39396 22.8121C5.29678 23.1502 6.25039 23.3326 7.21424 23.3518C8.45295 23.4071 8.84834 23.4215 12.0021 23.4215C15.1558 23.4215 15.5512 23.4082 16.7899 23.3518C17.7538 23.3326 18.7074 23.1502 19.6102 22.8121C20.3814 22.5132 21.0817 22.0566 21.6664 21.4715C22.251 20.8865 22.7071 20.1859 23.0056 19.4145C23.3436 18.5117 23.5261 17.5581 23.5453 16.5942C23.6006 15.3566 23.6139 14.9596 23.6139 11.8075C23.6139 8.65541 23.6006 8.25836 23.5442 7.01965C23.525 6.05581 23.3425 5.10219 23.0045 4.19937C22.7128 3.4245 22.2555 2.72264 21.6646 2.14278C21.0847 1.55181 20.3828 1.09453 19.608 0.802875C18.7052 0.464818 17.7515 0.282323 16.7877 0.263152C15.5501 0.207852 15.153 0.19458 12.001 0.19458Z" fill="currentColor"/>
<path d="M12.004 5.84497C10.8246 5.84497 9.67158 6.19472 8.69089 6.85C7.71019 7.50528 6.94584 8.43665 6.49447 9.52634C6.04311 10.616 5.92501 11.8151 6.15512 12.9719C6.38522 14.1287 6.95319 15.1913 7.7872 16.0253C8.62121 16.8593 9.6838 17.4273 10.8406 17.6574C11.9974 17.8875 13.1965 17.7694 14.2862 17.318C15.3758 16.8667 16.3072 16.1023 16.9625 15.1216C17.6178 14.1409 17.9675 12.9879 17.9675 11.8085C17.9675 10.2269 17.3392 8.71001 16.2209 7.59164C15.1025 6.47327 13.5856 5.84497 12.004 5.84497ZM12.004 15.6794C11.2384 15.6794 10.49 15.4524 9.85344 15.0271C9.21686 14.6017 8.72071 13.9972 8.42772 13.2898C8.13474 12.5825 8.05808 11.8042 8.20744 11.0533C8.35681 10.3024 8.72548 9.61265 9.26684 9.07128C9.80821 8.52992 10.4979 8.16125 11.2488 8.01188C11.9997 7.86252 12.7781 7.93918 13.4854 8.23216C14.1927 8.52515 14.7973 9.0213 15.2226 9.65788C15.648 10.2945 15.875 11.0429 15.875 11.8085C15.875 12.8351 15.4672 13.8197 14.7412 14.5457C14.0153 15.2716 13.0307 15.6794 12.004 15.6794Z" fill="currentColor"/>
<path d="M18.2022 6.99877C18.9718 6.99877 19.5958 6.37485 19.5958 5.60522C19.5958 4.83558 18.9718 4.21167 18.2022 4.21167C17.4326 4.21167 16.8087 4.83558 16.8087 5.60522C16.8087 6.37485 17.4326 6.99877 18.2022 6.99877Z" fill="currentColor"/>
</svg>
