<svg width="23" height="23" viewBox="0 0 23 23" fill="none" xmlns="http://www.w3.org/2000/svg">
<path d="M0 1.64757C0 0.737888 0.756143 0 1.68894 0H21.3111C22.2438 0 23 0.73789 23 1.64758V21.3524C23 22.2624 22.2438 23 21.3111 23L1.68894 23C0.756143 23 0 22.2624 0 21.3524V1.64757ZM7.10611 19.2534V8.86759H3.65407V19.2534H7.10611ZM5.38007 7.44959C6.58387 7.44959 7.33313 6.65208 7.33313 5.65542C7.3107 4.63632 6.58387 3.86094 5.40291 3.86094C4.22207 3.86094 3.45 4.63632 3.45 5.65542C3.45 6.65208 4.1991 7.44959 5.35757 7.44959H5.38007ZM12.4364 19.2534V13.4535C12.4364 13.1431 12.4588 12.833 12.55 12.6111C12.7995 11.991 13.3675 11.3486 14.3212 11.3486C15.5703 11.3486 16.07 12.301 16.07 13.6972V19.2534H19.5217V13.2983C19.5217 10.1083 17.8187 8.62388 15.5475 8.62388C13.7163 8.62388 12.8952 9.63034 12.4365 10.338V10.3738H12.4134C12.421 10.362 12.4287 10.35 12.4365 10.338V8.86759H8.98447C9.02977 9.84212 8.98447 19.2534 8.98447 19.2534H12.4364Z" fill="currentColor"/>
</svg>
