<svg width="13" height="10" viewBox="0 0 13 10" fill="none" xmlns="http://www.w3.org/2000/svg">
<path d="M12.1506 1.26984C11.7017 1.46938 11.2278 1.59409 10.7289 1.66891C11.2278 1.36961 11.6268 0.895715 11.8014 0.322054C11.3275 0.596413 10.8038 0.795948 10.2301 0.920657C9.78115 0.446763 9.13266 0.147461 8.43429 0.147461C7.08744 0.147461 5.99 1.2449 5.99 2.59176C5.99 2.79129 6.01494 2.96588 6.06482 3.14048C4.04454 3.04071 2.22379 2.06798 1.00164 0.571472C0.802103 0.945599 0.677394 1.34467 0.677394 1.79362C0.677394 2.64164 1.1014 3.38989 1.77483 3.83885C1.37576 3.81391 1.00164 3.71414 0.652453 3.53955V3.56449C0.652453 4.76169 1.50047 5.75937 2.62285 5.98384C2.42332 6.03373 2.19884 6.05867 1.97437 6.05867C1.82472 6.05867 1.65012 6.03373 1.50047 6.00878C1.82472 6.98151 2.72262 7.70483 3.79512 7.70483C2.9471 8.35331 1.89954 8.75238 0.75222 8.75238C0.552685 8.75238 0.353151 8.75238 0.178558 8.72744C1.276 9.42581 2.54803 9.82488 3.94477 9.82488C8.45924 9.82488 10.9285 6.08361 10.9285 2.84118C10.9285 2.74141 10.9285 2.6167 10.9285 2.51693C11.4024 2.19269 11.8264 1.76868 12.1506 1.26984Z" fill="currentColor"/>
</svg>
